# xmcd CD database file
#
# Track frame offsets:
#	150
#	34453
#	86013
#	133552
#	180868
#
# Disc length: 3398 seconds
#
# Revision: 0
# Processed by: cddbd v1.5.1PL2 Copyright (c) Steve Scherf et al.
# Submitted via: CDex 1.51
#
DISCID=380d4405
DTITLE=Georges Arvanitas - Georges Arvanitas Trio in Concert
DYEAR=1970
DGENRE=Jazz
TTITLE0=Sixieme Sens
TTITLE1=Colchique
TTITLE2=Dans Les Pres
TTITLE3=Ah! Le Chat
TTITLE4=Indian
EXTD=YEAR: 1970
EXTT0=
EXTT1=
EXTT2=
EXTT3=
EXTT4=
PLAYORDER=
